# Made in Blockbench 5.0.7
mtllib respawn_anchor.mtl

o cube
v 1 1 1
v 1 1 0
v 1 0 1
v 1 0 0
v 0 1 0
v 0 1 1
v 0 0 0
v 0 0 1
vt 0 1
vt 1 1
vt 1 0
vt 0 0
vt 0 1
vt 1 1
vt 1 0
vt 0 0
vt 0 1
vt 1 1
vt 1 0
vt 0 0
vt 0 1
vt 1 1
vt 1 0
vt 0 0
vt 0 1
vt 1 1
vt 1 0
vt 0 0
vt 0 1
vt 1 1
vt 1 0
vt 0 0
vn 0 0 -1
vn 1 0 0
vn 0 0 1
vn -1 0 0
vn 0 1 0
vn 0 -1 0
usemtl m_fdc43dce-51ca-d8c8-5476-d59d149ef097
f 4/4/1 7/3/1 5/2/1 2/1/1
f 3/8/2 4/7/2 2/6/2 1/5/2
f 8/12/3 3/11/3 1/10/3 6/9/3
f 7/16/4 8/15/4 6/14/4 5/13/4
usemtl m_ab94b72f-f8ff-c0c3-1431-ba100ce3a9a1
f 6/20/5 1/19/5 2/18/5 5/17/5
usemtl m_4a07e267-46c5-ae16-9984-6feadfa723e6
f 7/24/6 4/23/6 3/22/6 8/21/6
o cube
v 1.0625 2 1.0625
v 1.0625 2 -0.0625
v 0.875 1 0.875
v 0.875 1 0.125
v -0.0625 2 1.0625
v -0.0625 2 -0.0625
v 0.125 1 0.875
v 0.125 1 0.125
vt 0.53125 0.484375
vt 0.578125 0.734375
vt 0.296875 0.734375
vt 0.34375 0.484375
vt 0.5 0.21875
vt 0.546875 0.46875
vt 0.265625 0.46875
vt 0.3125 0.21875
vt 0.28125 0.71875
vt 0.28125 1
vt 0 1
vt 0 0.71875
vt 0.1875 0.25
vt 0.1875 0.4375
vt 0 0.4375
vt 0 0.25
vt 0.234375 0.453125
vt 0.28125 0.703125
vt 0 0.703125
vt 0.046875 0.453125
vt 0.53125 0.75
vt 0.578125 1
vt 0.296875 1
vt 0.34375 0.75
vn 0.9828721869343219 -0.18428853505018536 0
vn -0.9828721869343219 -0.18428853505018536 0
vn 0 1 0
vn 0 -1 0
vn 0 -0.18428853505018536 0.9828721869343219
vn 0 -0.18428853505018536 -0.9828721869343219
usemtl m_16ddf59b-c25e-678c-611f-0aad51232ad7
f 12/25/7 10/26/7 9/27/7 11/28/7
f 15/29/8 13/30/8 14/31/8 16/32/8
f 9/33/9 10/34/9 14/35/9 13/36/9
f 12/37/10 11/38/10 15/39/10 16/40/10
f 11/41/11 9/42/11 13/43/11 15/44/11
f 16/45/12 14/46/12 10/47/12 12/48/12